<?xml version="1.0" encoding="UTF-8"?>
<svg width="22px" height="22px" viewBox="0 0 22 22" version="1.1" xmlns="http://www.w3.org/2000/svg" xmlns:xlink="http://www.w3.org/1999/xlink">
    <!-- Generator: Sketch 52.1 (67048) - http://www.bohemiancoding.com/sketch -->
    <title>icon_通讯录</title>
    <desc>Created with Sketch.</desc>
    <g id="Page-1" stroke="none" stroke-width="1" fill="none" fill-rule="evenodd">
        <g id="1-1通讯录-部门" transform="translate(-1510.000000, -14.000000)" fill="#FFFFFF">
            <g id="WeMust办公平台PC_头部">
                <g id="icon_通讯录" transform="translate(1510.000000, 14.000000)">
                    <path d="M8.28876711,14.7135864 C7.79574711,14.1104492 7.5,13.3397623 7.5,12.5 C7.5,10.5670034 9.06700338,9 11,9 C12.9329966,9 14.5,10.5670034 14.5,12.5 C14.5,13.3397623 14.2042529,14.1104492 13.7112329,14.7135864 C15.2397412,15.581265 16.3117653,17.1599784 16.4775785,19 L20,19 L20,6 L16,6 L16,8 L14,8 L14,6 L8,6 L8,8 L6,8 L6,6 L2,6 L2,19 L5.52242151,19 C5.68823473,17.1599784 6.76025883,15.581265 8.28876711,14.7135864 Z M14.4645556,19 C14.2219407,17.3038529 12.763236,16 11,16 C9.23676405,16 7.77805926,17.3038529 7.53544443,19 L14.4645556,19 Z M8,4 L14,4 L14,1 L16,1 L16,4 L22,4 L22,21 L0,21 L0,4 L6,4 L6,1 L8,1 L8,4 Z M11,14 C11.8284271,14 12.5,13.3284271 12.5,12.5 C12.5,11.6715729 11.8284271,11 11,11 C10.1715729,11 9.5,11.6715729 9.5,12.5 C9.5,13.3284271 10.1715729,14 11,14 Z"></path>
                </g>
            </g>
        </g>
    </g>
</svg>