<?xml version="1.0" encoding="UTF-8"?>
<svg width="18px" height="18px" viewBox="0 0 18 18" version="1.1" xmlns="http://www.w3.org/2000/svg" xmlns:xlink="http://www.w3.org/1999/xlink">
    <!-- Generator: Sketch 52.1 (67048) - http://www.bohemiancoding.com/sketch -->
    <title>icon_sousuo</title>
    <desc>Created with Sketch.</desc>
    <g id="Page-1" stroke="none" stroke-width="1" fill="none" fill-rule="evenodd">
        <g id="1-3通讯录-最近联系人" transform="translate(-1765.000000, -178.000000)" fill="#FFFFFF" fill-rule="nonzero">
            <g id="分组-6" transform="translate(27.000000, 170.000000)">
                <g id="單個搜索" transform="translate(1518.000000, 0.000000)">
                    <g id="分组">
                        <g id="icon_sousuo" transform="translate(220.000000, 8.000000)">
                            <path d="M11.1602137,0 C7.38258179,0 4.32042749,3.06215431 4.32042749,6.83978626 C4.32042749,8.42148683 4.85816068,9.87719134 5.75813256,11.0359051 L0.0523108653,16.7417268 C-0.0174369551,16.8114746 -0.0174369551,16.9262211 0.0523108653,16.9959689 L1.00403112,17.9476891 C1.07377894,18.017437 1.18852536,18.017437 1.25827318,17.9476891 L6.96409487,12.2418674 C8.12280866,13.1418393 9.57851317,13.6795725 11.1602137,13.6795725 C14.9378457,13.6795725 18,10.6174182 18,6.83978626 C18,3.06215431 14.9378457,0 11.1602137,0 Z M14.7871004,10.4666729 C13.8196306,11.4363926 12.5304209,11.9696259 11.1602137,11.9696259 C9.79000656,11.9696259 8.50079685,11.4363926 7.53332708,10.4666729 C6.56360739,9.49920315 6.03037405,8.20999344 6.03037405,6.83978626 C6.03037405,5.46957908 6.56360739,4.18036936 7.53332708,3.2128996 C8.50079685,2.2431799 9.79000656,1.70994656 11.1602137,1.70994656 C12.5304209,1.70994656 13.8196306,2.2431799 14.7871004,3.2128996 C15.7568201,4.18036936 16.2900534,5.46957908 16.2900534,6.83978626 C16.2900534,8.20999344 15.7568201,9.49920315 14.7871004,10.4666729 Z" transform="translate(9.000000, 9.000000) scale(-1, 1) translate(-9.000000, -9.000000) "></path>
                        </g>
                    </g>
                </g>
            </g>
        </g>
    </g>
</svg>