<?xml version="1.0" encoding="UTF-8"?>
<svg width="116px" height="26px" viewBox="0 0 116 26" version="1.1" xmlns="http://www.w3.org/2000/svg" xmlns:xlink="http://www.w3.org/1999/xlink">
    <!-- Generator: Sketch 52.1 (67048) - http://www.bohemiancoding.com/sketch -->
    <title>logo</title>
    <desc>Created with Sketch.</desc>
    <g id="Page-1" stroke="none" stroke-width="1" fill="none" fill-rule="evenodd">
        <g id="1-1通讯录-部门" transform="translate(-55.000000, -13.000000)" fill="#FFFFFF">
            <g id="WeMust办公平台PC_头部">
                <g id="logo" transform="translate(55.000000, 13.000000)">
                    <path d="M14.776561,4.60077086 L12.6485012,16.6136285 L10.3999667,17.8959048 L17.3849116,13.9127275 L18.0635788,13.5068963 C18.3369755,13.357342 18.6507563,13.2723923 18.9838357,13.2723923 C19.4016145,13.2723923 19.7883011,13.4058847 20.103154,13.6321793 L20.80791,14.1322404 L22.3685942,15.2444391 L3.42738395,25.9895062 L4.04950045,22.4702621 L3.41362477,26 L1.3518919,26 C0.609610884,25.8515165 -0.18377566,25.119093 0.0378007624,23.9190891 L3.30355132,5.86549172 C3.45222195,5.12378798 4.1076593,4.56483318 4.8942556,4.56483318 L7.27513,4.56483318 L4.24083619,21.4081598 L8.56827859,18.9404652 L11.6950078,1.30197919 C11.8436784,0.560275441 12.4994732,0.00132064671 13.2857121,0.00132064671 L15.5915364,0.000249852079 L15.2973529,1.66091032 L15.5990057,0.00139203301 L29.4007743,9.83165964 L27.4503423,8.42965223 L42.1823153,0 L44.2501236,0 C45.1861053,0 45.9094451,0.596075675 45.7732828,1.61618602 L45.6347543,2.25994207 L45.6406586,2.25659259 L43.8248041,12.4166489 L40.1087531,12.4166489 L41.4943205,4.60877146 L41.5279938,4.5896689 L30.6699906,10.7439963 L30.6686391,10.7430249 L27.702439,12.4340315 C27.4293997,12.5839427 27.1159763,12.6688925 26.7821821,12.6688925 C26.3644034,12.6688925 25.9780741,12.5354001 25.6628638,12.3087485 L14.776561,4.60077086 Z M34.2637737,23.7091873 L34.1205073,24.4523805 C33.9335969,25.6584522 33.2227654,25.9896847 32.1935072,25.9850446 L30.315111,25.9896847 L18.3628499,17.5239824 L22.3698093,15.2442606 L33.1656872,22.9255331 L31.0250132,21.3978318 L33.1510747,9.33782884 L37.2155726,7.03811892 L34.2639602,23.7093204 Z M39.7365404,14.6253056 L41.6188679,14.6253056 L39.9827762,23.8891069 C39.9541857,24.0529384 40.0878463,24.2660266 40.4105616,24.2685251 L43.5240677,24.2681682 C43.8349895,24.2656696 44.0408411,24.0647172 44.077294,23.9015995 L45.7026643,14.6253056 L47.6082215,14.6253056 C47.6082215,14.6253056 46.0750556,23.278397 45.9524738,23.9565669 C45.9631953,24.1029089 46.1065052,24.2660266 46.3838331,24.2685251 L49.4901916,24.2681682 C49.8096905,24.2656696 50.0166143,24.0547231 50.0459196,23.8876791 L51.6930901,14.6253056 L53.5747028,14.6253056 L51.9321782,23.8662632 C51.7209658,25.0623408 50.4747771,25.9771564 49.2142932,25.989649 L46.0721966,26 C45.5329082,25.9839381 45.0715289,25.8268882 44.724869,25.5606173 C44.2856473,25.8261743 43.7713756,25.9846519 43.247812,25.989649 L43.2092148,25.9914336 L40.1067875,26 C38.8302214,25.9757287 37.9046038,25.0641255 38.1161735,23.8662632 L39.7365404,14.6253056 Z M65.740928,14.5908617 L65.435367,16.3230505 L57.4289532,16.3230505 C57.1348283,16.3230505 56.9171831,16.5275723 56.8818023,16.7174599 L56.5058372,18.8469134 C56.4754598,19.0293055 56.6109073,19.2259747 56.8953828,19.2359688 L64.5344087,19.2252609 L64.2249165,20.9781517 C64.2249165,20.9781517 57.0461978,20.9735116 56.5176308,20.9706561 C56.2681786,21.0095616 56.0941339,21.1880274 56.062327,21.3579268 L55.6227479,23.8503798 C55.5916558,24.0366981 55.7349657,24.2394352 56.0326643,24.2394352 L64.0376486,24.2383644 L63.7320876,25.9701962 L55.75212,25.9719809 C54.491636,25.9719809 53.5385,25.0671594 53.7529288,23.8539491 L55.012698,16.7188876 C55.2267694,15.5056773 56.4990469,14.6004989 57.7595309,14.6004989 L65.740928,14.5908617 Z M79.0286159,25.969875 L77.1462885,25.969875 L78.7820228,16.7060737 C78.8109707,16.5422422 78.6773101,16.329154 78.3542373,16.3266555 L75.2410886,16.3270124 C74.9301669,16.329511 74.7243152,16.5304634 74.6878623,16.6935811 L73.0624921,25.969875 L71.1569348,25.969875 C71.1569348,25.969875 72.6901007,17.3164267 72.8126825,16.6386137 C72.8019611,16.4922717 72.6586512,16.3287971 72.3813232,16.3266555 L69.2749648,16.3270124 C68.9554659,16.329511 68.7485421,16.5404575 68.7192368,16.7075015 L67.0720663,25.969875 L65.1904536,25.969875 L66.8329782,16.7289174 C67.0441905,15.5328398 68.2903792,14.6180242 69.5508631,14.6051747 L72.6929598,14.5951806 C73.2322482,14.6112425 73.6936275,14.7682924 74.03993,15.0345633 C74.479509,14.7690063 74.9937807,14.6105287 75.5173444,14.6051747 L75.5559416,14.603747 L78.6580115,14.5951806 C79.934935,14.6194519 80.8605526,15.5310551 80.6489828,16.7289174 L79.0286159,25.969875 Z M83.0550884,25.9711956 C81.7785223,25.9469243 80.8525472,25.0353211 81.064117,23.8371019 L82.682697,14.6075661 L84.5646671,14.6075661 L82.931077,23.8603025 C82.9021292,24.0241341 83.0361471,24.2368653 83.3588625,24.2393638 L89.0862556,24.2393638 C89.4057545,24.2368653 89.6126783,24.0259187 89.6419836,23.8588748 L91.2870098,14.6075661 L93.1686225,14.6075661 L91.5282422,23.8371019 C91.3213184,25.0085513 90.1158712,25.9133727 88.8829056,25.9615585 L83.0550884,25.9711956 Z M101.482206,21.090835 L95.9120603,21.0662067 C94.6244153,21.0537141 93.6848598,20.1381847 93.8978591,18.9310422 L94.2991983,16.7419811 C94.5318536,15.5130658 95.7976982,14.604318 97.0621134,14.604318 L104.610722,14.5946809 L104.304803,16.3268697 L96.731893,16.3268697 C96.4377682,16.3268697 96.2197656,16.5317484 96.1843848,16.721279 L95.7876916,18.96852 C95.7576715,19.1501982 95.8916895,19.3465105 96.1743781,19.3575754 L101.760606,19.3682833 C103.025378,19.3682833 103.970294,20.277031 103.768731,21.5059463 L103.372395,23.8359954 C103.159039,25.0431379 101.896411,25.9583104 100.60412,25.9711599 L92.9969008,25.9736585 L93.3006749,24.2514638 L100.95078,24.2621717 C101.23454,24.2489652 101.435389,24.0540806 101.46934,23.8731163 L101.89105,21.4852443 C101.922499,21.2957137 101.77633,21.090835 101.482206,21.090835 Z M115.691937,16.3399691 L111.670683,16.3467508 L109.969905,25.98069 L107.998589,25.9785484 L109.700797,16.34568 L105.634869,16.3410399 L105.936142,14.6049248 L116,14.5949307 L115.691937,16.3399691 Z"></path>
                </g>
            </g>
        </g>
    </g>
</svg>