<?xml version="1.0" encoding="UTF-8"?>
<svg width="22px" height="22px" viewBox="0 0 22 22" version="1.1" xmlns="http://www.w3.org/2000/svg" xmlns:xlink="http://www.w3.org/1999/xlink">
    <!-- Generator: Sketch 52.1 (67048) - http://www.bohemiancoding.com/sketch -->
    <title>icon_新建</title>
    <desc>Created with Sketch.</desc>
    <g id="Page-1" stroke="none" stroke-width="1" fill="none" fill-rule="evenodd">
        <g id="1-1通讯录-部门" transform="translate(-237.000000, -14.000000)" fill="#FFFFFF" fill-rule="nonzero">
            <g id="WeMust办公平台PC_头部">
                <g id="icon_新建" transform="translate(237.000000, 14.000000)">
                    <path d="M10,10 L6,10 L6,12 L10,12 L10,16 L12,16 L12,12 L16,12 L16,10 L12,10 L12,6 L10,6 L10,10 Z M11,22 C4.92486775,22 0,17.0751322 0,11 C0,4.92486775 4.92486775,0 11,0 C17.0751322,0 22,4.92486775 22,11 C22,17.0751322 17.0751322,22 11,22 Z M11,20 C15.9705627,20 20,15.9705627 20,11 C20,6.02943725 15.9705627,2 11,2 C6.02943725,2 2,6.02943725 2,11 C2,15.9705627 6.02943725,20 11,20 Z"></path>
                </g>
            </g>
        </g>
    </g>
</svg>