<?xml version="1.0" encoding="UTF-8"?>
<svg width="22px" height="22px" viewBox="0 0 22 22" version="1.1" xmlns="http://www.w3.org/2000/svg" xmlns:xlink="http://www.w3.org/1999/xlink">
    <!-- Generator: Sketch 52.1 (67048) - http://www.bohemiancoding.com/sketch -->
    <title>icon_常见问题</title>
    <desc>Created with Sketch.</desc>
    <g id="Page-1" stroke="none" stroke-width="1" fill="none" fill-rule="evenodd">
        <g id="1-1通讯录-部门" transform="translate(-1730.000000, -14.000000)" fill="#FFFFFF" fill-rule="nonzero">
            <g id="WeMust办公平台PC_头部">
                <g id="icon_常见问题" transform="translate(1730.000000, 14.000000)">
                    <path d="M11,22 C4.92486775,22 0,17.0751322 0,11 C0,4.92486775 4.92486775,0 11,0 C17.0751322,0 22,4.92486775 22,11 C22,17.0751322 17.0751322,22 11,22 Z M11,20 C15.9705627,20 20,15.9705627 20,11 C20,6.02943725 15.9705627,2 11,2 C6.02943725,2 2,6.02943725 2,11 C2,15.9705627 6.02943725,20 11,20 Z M11.252,5.808 C12.162,5.808 12.904,6.046 13.464,6.55 C14.024,7.04 14.304,7.712 14.304,8.566 C14.304,9.266 14.122,9.84 13.786,10.288 C13.66,10.428 13.254,10.806 12.582,11.394 C12.33,11.59 12.148,11.828 12.022,12.08 C11.882,12.36 11.812,12.668 11.812,13.004 L11.812,13.2 L10.202,13.2 L10.202,13.004 C10.202,12.472 10.286,12.01 10.482,11.632 C10.664,11.254 10.986,10.862 11.448,10.456 C11.896,10.05 12.176,9.784 12.288,9.658 C12.54,9.35 12.666,9.014 12.666,8.664 C12.666,8.202 12.526,7.838 12.274,7.572 C12.008,7.306 11.63,7.18 11.154,7.18 C10.552,7.18 10.118,7.362 9.838,7.74 C9.6,8.062 9.488,8.524 9.488,9.126 L7.892,9.126 C7.892,8.09 8.186,7.278 8.802,6.69 C9.404,6.102 10.216,5.808 11.252,5.808 Z M11,13.886 C11.308,13.886 11.574,13.984 11.784,14.18 C11.98,14.376 12.092,14.628 12.092,14.936 C12.092,15.244 11.98,15.51 11.784,15.706 C11.56,15.902 11.308,16 11,16 C10.692,16 10.44,15.888 10.244,15.692 C10.02,15.496 9.922,15.244 9.922,14.936 C9.922,14.628 10.02,14.376 10.244,14.18 C10.44,13.984 10.692,13.886 11,13.886 Z"></path>
                </g>
            </g>
        </g>
    </g>
</svg>