<?xml version="1.0" encoding="UTF-8"?>
<svg width="22px" height="22px" viewBox="0 0 22 22" version="1.1" xmlns="http://www.w3.org/2000/svg" xmlns:xlink="http://www.w3.org/1999/xlink">
    <!-- Generator: Sketch 52.1 (67048) - http://www.bohemiancoding.com/sketch -->
    <title>icon_设置</title>
    <desc>Created with Sketch.</desc>
    <g id="Page-1" stroke="none" stroke-width="1" fill="none" fill-rule="evenodd">
        <g id="1-1通讯录-部门" transform="translate(-1652.000000, -14.000000)" fill="#FFFFFF" fill-rule="nonzero">
            <g id="WeMust办公平台PC_头部">
                <g id="icon_设置" transform="translate(1652.000000, 14.000000)">
                    <path d="M21.709727,13.8008919 L20.0107996,12.4274247 C20.0912069,11.961427 20.1327074,11.4856187 20.1327074,11.0098105 C20.1327074,10.5340022 20.0912069,10.058194 20.0107996,9.59219621 L21.709727,8.2187291 C21.971699,8.00780379 22.067669,7.66443701 21.9509488,7.35540691 L21.9276047,7.2916388 C21.4581301,6.05306577 20.7629965,4.91505017 19.8603602,3.90947603 L19.8136722,3.85797101 C19.5906069,3.61025641 19.2300712,3.51705686 18.9032546,3.62497213 L16.7945096,4.33377926 C16.0163749,3.73043478 15.1474579,3.25462653 14.2085087,2.92107023 L13.8012849,0.836343367 C13.7390341,0.515050167 13.4718745,0.264882943 13.132089,0.206020067 L13.0620569,0.193756968 C11.7106963,-0.0367892977 10.2893037,-0.0367892977 8.93794309,0.193756968 L8.86791097,0.206020067 C8.52812549,0.264882943 8.26096592,0.515050167 8.19871515,0.836343367 L7.78889755,2.93088071 C6.85772971,3.26443701 5.99400021,3.73779264 5.2210531,4.3386845 L3.09674542,3.62497213 C2.77252263,3.51705686 2.40939311,3.60780379 2.18632784,3.85797101 L2.13963976,3.90947603 C1.23700353,4.91750279 0.541869876,6.05551839 0.072395285,7.2916388 L0.0490512446,7.35540691 C-0.0676689577,7.66198439 0.0283009864,8.00535117 0.290272996,8.2187291 L2.00995064,9.60691193 C1.92954339,10.0680045 1.89063666,10.5389075 1.89063666,11.0073579 C1.89063666,11.4782609 1.92954339,11.9491639 2.00995064,12.4078038 L0.290272996,13.7959866 C0.0283009864,14.0069119 -0.0676689577,14.3502787 0.0490512446,14.6593088 L0.072395285,14.7230769 C0.541869876,15.9591973 1.23700353,17.0996656 2.13963976,18.1052397 L2.18632784,18.1567447 C2.40939311,18.4044593 2.76992885,18.4976589 3.09674542,18.3897436 L5.2210531,17.6760312 C5.99400021,18.2769231 6.85772971,18.7527313 7.78889755,19.083835 L8.19871515,21.1783724 C8.26096592,21.4996656 8.52812549,21.7498328 8.86791097,21.8086957 L8.93794309,21.8209588 C9.61492027,21.9362319 10.3074601,21.9950948 11,21.9950948 C11.6925399,21.9950948 12.3876735,21.9362319 13.0620569,21.8209588 L13.132089,21.8086957 C13.4718745,21.7498328 13.7390341,21.4996656 13.8012849,21.1783724 L14.2085087,19.0936455 C15.1474579,18.7600892 16.0163749,18.2867336 16.7945096,17.6809365 L18.9032546,18.3897436 C19.2274774,18.4976589 19.5906069,18.4069119 19.8136722,18.1567447 L19.8603602,18.1052397 C20.7629965,17.0972129 21.4581301,15.9591973 21.9276047,14.7230769 L21.9509488,14.6593088 C22.067669,14.3576366 21.971699,14.0142698 21.709727,13.8008919 Z M18.1692142,9.88160535 C18.2340588,10.2519509 18.2677779,10.632107 18.2677779,11.0122631 C18.2677779,11.3924192 18.2340588,11.7725753 18.1692142,12.1429208 L17.9980246,13.1264214 L19.9355799,14.6936455 C19.6424825,15.3337793 19.2715717,15.9371237 18.8306287,16.4987737 L16.4235987,15.6918618 L15.6091511,16.3246377 C14.9892371,16.8053512 14.2992911,17.1830546 13.5522818,17.4479376 L12.5640507,17.7986622 L12.0997637,20.1777035 C11.3709109,20.2561873 10.6264954,20.2561873 9.89504875,20.1777035 L9.43076173,17.793757 L8.45031203,17.4381271 C7.71108408,17.1732441 7.02373178,16.7955407 6.40900538,16.3172798 L5.59455774,15.6820513 L3.1719651,16.4963211 C2.73102211,15.9346711 2.36270503,15.328874 2.06701385,14.6911929 L4.02531947,13.1092531 L3.85672362,12.1282051 C3.79447285,11.7627648 3.76075368,11.3850613 3.76075368,11.0122631 C3.76075368,10.6370123 3.79187906,10.2617614 3.85672362,9.89632107 L4.02531947,8.91527313 L2.06701385,7.33333333 C2.36011125,6.69319955 2.73102211,6.08985507 3.1719651,5.52820513 L5.59455774,6.34247492 L6.40900538,5.70724638 C7.02373178,5.22898551 7.71108408,4.85128205 8.45031203,4.58639911 L9.43335551,4.23567447 L9.89764253,1.85172798 C10.6264954,1.77324415 11.3709109,1.77324415 12.1023575,1.85172798 L12.5666445,4.23076923 L13.5548755,4.58149387 C14.2992911,4.84637681 14.9918309,5.22408027 15.6117449,5.70479376 L16.4261925,6.33756968 L18.8332225,5.53065775 C19.2741654,6.09230769 19.6424825,6.69810479 19.9381737,7.33578595 L18.0006184,8.90301003 L18.1692142,9.88160535 Z M11.0025938,6.45039019 C8.48143741,6.45039019 6.43753698,8.38305463 6.43753698,10.7670011 C6.43753698,13.1509476 8.48143741,15.083612 11.0025938,15.083612 C13.5237502,15.083612 15.5676506,13.1509476 15.5676506,10.7670011 C15.5676506,8.38305463 13.5237502,6.45039019 11.0025938,6.45039019 Z M13.0568693,12.709476 C12.5069875,13.2269788 11.7781347,13.5139353 11.0025938,13.5139353 C10.2270529,13.5139353 9.49820006,13.2269788 8.94831822,12.709476 C8.40103016,12.1895206 8.09755764,11.5003344 8.09755764,10.7670011 C8.09755764,10.0336678 8.40103016,9.34448161 8.94831822,8.8245262 C9.49820006,8.30457079 10.2270529,8.02006689 11.0025938,8.02006689 C11.7781347,8.02006689 12.5069875,8.30457079 13.0568693,8.8245262 C13.6041574,9.34448161 13.9076299,10.0336678 13.9076299,10.7670011 C13.9076299,11.5003344 13.6041574,12.1895206 13.0568693,12.709476 Z"></path>
                </g>
            </g>
        </g>
    </g>
</svg>